<svg width="24" height="24" viewBox="0 0 24 24" fill="none" xmlns="http://www.w3.org/2000/svg">
<path d="M12.375 6.01685C9.125 6.01685 6.53516 8.65747 6.53516 11.8567C6.53516 15.1067 9.125 17.6965 12.375 17.6965C15.5742 17.6965 18.2148 15.1067 18.2148 11.8567C18.2148 8.65747 15.5742 6.01685 12.375 6.01685ZM12.375 15.6653C10.293 15.6653 8.56641 13.9895 8.56641 11.8567C8.56641 9.77466 10.2422 8.09888 12.375 8.09888C14.457 8.09888 16.1328 9.77466 16.1328 11.8567C16.1328 13.9895 14.457 15.6653 12.375 15.6653ZM19.7891 5.81372C19.7891 5.052 19.1797 4.44263 18.418 4.44263C17.6562 4.44263 17.0469 5.052 17.0469 5.81372C17.0469 6.57544 17.6562 7.18481 18.418 7.18481C19.1797 7.18481 19.7891 6.57544 19.7891 5.81372ZM23.6484 7.18481C23.5469 5.35669 23.1406 3.73169 21.8203 2.41138C20.5 1.09106 18.875 0.684814 17.0469 0.583252C15.168 0.481689 9.53125 0.481689 7.65234 0.583252C5.82422 0.684814 4.25 1.09106 2.87891 2.41138C1.55859 3.73169 1.15234 5.35669 1.05078 7.18481C0.949219 9.06372 0.949219 14.7004 1.05078 16.5793C1.15234 18.4075 1.55859 19.9817 2.87891 21.3528C4.25 22.6731 5.82422 23.0793 7.65234 23.1809C9.53125 23.2825 15.168 23.2825 17.0469 23.1809C18.875 23.0793 20.5 22.6731 21.8203 21.3528C23.1406 19.9817 23.5469 18.4075 23.6484 16.5793C23.75 14.7004 23.75 9.06372 23.6484 7.18481ZM21.2109 18.5598C20.8555 19.5754 20.043 20.3372 19.0781 20.7434C17.5547 21.3528 14 21.2004 12.375 21.2004C10.6992 21.2004 7.14453 21.3528 5.67188 20.7434C4.65625 20.3372 3.89453 19.5754 3.48828 18.5598C2.87891 17.0872 3.03125 13.5325 3.03125 11.8567C3.03125 10.2317 2.87891 6.677 3.48828 5.15356C3.89453 4.18872 4.65625 3.427 5.67188 3.02075C7.14453 2.41138 10.6992 2.56372 12.375 2.56372C14 2.56372 17.5547 2.41138 19.0781 3.02075C20.043 3.37622 20.8047 4.18872 21.2109 5.15356C21.8203 6.677 21.668 10.2317 21.668 11.8567C21.668 13.5325 21.8203 17.0872 21.2109 18.5598Z" fill="white"/>
</svg>
