<svg width="29" height="30" viewBox="0 0 29 30" fill="none" xmlns="http://www.w3.org/2000/svg">
<g clip-path="url(#clip0)">
<path d="M28.2108 21.8551L24.1637 17.8081C22.7184 16.3627 20.2612 16.9409 19.6831 18.8198C19.2495 20.1207 17.8041 20.8434 16.5033 20.5543C13.6125 19.8316 9.71003 16.0736 8.98734 13.0383C8.55373 11.7375 9.42095 10.2921 10.7218 9.85853C12.6008 9.28038 13.1789 6.82325 11.7335 5.37788L7.68651 1.33084C6.53021 0.319082 4.79577 0.319082 3.78401 1.33084L1.03781 4.07704C-1.7084 6.96779 1.32688 14.6282 8.12012 21.4215C14.9134 28.2147 22.5738 31.3946 25.4646 28.5038L28.2108 25.7576C29.2226 24.6013 29.2226 22.8669 28.2108 21.8551Z" fill="white"/>
</g>
<defs>
<clipPath id="clip0">
<rect width="29" height="29" fill="white" transform="translate(0 0.572021)"/>
</clipPath>
</defs>
</svg>
